HIERARCHY
ROOT Pelvis
{
	OFFSET 0.000000 0.000000 0.000000
	CHANNELS 6 Xposition Yposition Zposition Xrotation Yrotation Zrotation
	JOINT LeftUpLeg_virtual
	{
		OFFSET 0.000000 0.000000 0.000000
		CHANNELS 3 Xrotation Yrotation Zrotation
		JOINT LeftUpLeg
		{
			OFFSET 18.735201 -5.666702 -4.541200
			CHANNELS 3 Xrotation Yrotation Zrotation
			JOINT LeftLeg
			{
				OFFSET -0.021200 -31.938179 0.493100
				CHANNELS 3 Xrotation Yrotation Zrotation
				JOINT LeftFoot
				{
					OFFSET 0.021200 -31.938179 -4.336299
					CHANNELS 3 Xrotation Yrotation Zrotation
					JOINT LeftToeBase
					{
						OFFSET 0.943001 -26.722000 15.023500
						CHANNELS 3 Xrotation Yrotation Zrotation
						End Site
						{
							OFFSET 0 0 0
						}
					}
				}
			}
		}
	}
	JOINT RightUpLeg_virtual
	{
		OFFSET 0.000000 0.000000 0.000000
		CHANNELS 3 Xrotation Yrotation Zrotation
		JOINT RightUpLeg
		{
			OFFSET -18.735201 -5.666702 -4.541200
			CHANNELS 3 Xrotation Yrotation Zrotation
			JOINT RightLeg
			{
				OFFSET 0.018946 -31.938133 0.493100
				CHANNELS 3 Xrotation Yrotation Zrotation
				JOINT RightFoot
				{
					OFFSET -0.018946 -31.938126 -4.336299
					CHANNELS 3 Xrotation Yrotation Zrotation
					JOINT RightToeBase
					{
						OFFSET -0.943001 -26.722004 15.023500
						CHANNELS 3 Xrotation Yrotation Zrotation
						End Site
						{
							OFFSET 0 0 0
						}
					}
				}
			}
		}
	}
	JOINT Hips_virtual
	{
		OFFSET 0.000000 0.000000 0.000000
		CHANNELS 3 Xrotation Yrotation Zrotation
		JOINT Hips
		{
			OFFSET -0.000000 -0.000000 -0.000000
			CHANNELS 3 Xrotation Yrotation Zrotation
			JOINT Spine
			{
				OFFSET 0.000000 10.199997 -0.299500
				CHANNELS 3 Xrotation Yrotation Zrotation
				JOINT Spine1
				{
					OFFSET 0.000000 11.900002 -1.516600
					CHANNELS 3 Xrotation Yrotation Zrotation
					JOINT Spine2
					{
						OFFSET 0.000000 13.600006 -2.842500
						CHANNELS 3 Xrotation Yrotation Zrotation
						JOINT Neck_virtual
						{
							OFFSET 0.000000 0.000000 0.000000
							CHANNELS 3 Xrotation Yrotation Zrotation
							JOINT Neck
							{
								OFFSET 0.000000 9.624100 -2.890100
								CHANNELS 3 Xrotation Yrotation Zrotation
								JOINT Head
								{
									OFFSET 0.000000 14.068802 -1.351900
									CHANNELS 3 Xrotation Yrotation Zrotation
									End Site
									{
										OFFSET 0 0 0
									}
								}
							}
						}
						JOINT LeftShoulder_virtual
						{
							OFFSET 0.000000 0.000000 0.000000
							CHANNELS 3 Xrotation Yrotation Zrotation
							JOINT LeftShoulder
							{
								OFFSET 15.263000 10.923401 -0.547700
								CHANNELS 3 Xrotation Yrotation Zrotation
								JOINT LeftArm
								{
									OFFSET 25.438599 -2.830597 -13.032500
									CHANNELS 3 Xrotation Yrotation Zrotation
									JOINT LeftForeArm
									{
										OFFSET 29.960503 0.000000 0.000000
										CHANNELS 3 Xrotation Yrotation Zrotation
										JOINT LeftHand
										{
											OFFSET 27.849251 0.000000 0.000000
											CHANNELS 3 Xrotation Yrotation Zrotation
											End Site
											{
												OFFSET 0 0 0
											}
										}
									}
								}
							}
						}
						JOINT RightShoulder_virtual
						{
							OFFSET 0.000000 0.000000 0.000000
							CHANNELS 3 Xrotation Yrotation Zrotation
							JOINT RightShoulder
							{
								OFFSET -15.263000 10.923401 -0.547700
								CHANNELS 3 Xrotation Yrotation Zrotation
								JOINT RightArm
								{
									OFFSET -25.438599 -2.830597 -13.032500
									CHANNELS 3 Xrotation Yrotation Zrotation
									JOINT RightForeArm
									{
										OFFSET -29.960503 0.000000 0.000000
										CHANNELS 3 Xrotation Yrotation Zrotation
										JOINT RightHand
										{
											OFFSET -27.849251 0.000000 0.000000
											CHANNELS 3 Xrotation Yrotation Zrotation
											End Site
											{
												OFFSET 0 0 0
											}
										}
									}
								}
							}
						}
					}
				}
			}
		}
	}
}
MOTION
Frames: 11
Frame Time: 0.03333333
-13.381699 19.488445 -72.873428 0.000000 0.000000 0.000000 -54.997462 19.360019 12.641997 -96.706224 1.427396 21.952904 78.506345 4.638314 -4.046444 22.904942 5.674627 -7.147665 0.000000 0.000000 0.000000 -76.290556 16.350542 -9.089921 -105.328982 15.652794 -18.162897 103.709667 5.248615 2.609109 32.633005 5.423548 21.874569 0.000000 0.000000 0.000000 -23.947784 3.547497 -0.112239 -79.804060 37.272274 15.612238 54.960511 7.471659 -3.802423 26.226605 5.264971 0.159203 0.000000 0.000000 0.000000 17.618423 1.839339 -2.728739 5.847283 0.202042 -0.630651 0.000000 0.000000 0.000000 21.552498 3.389751 0.371088 5.688662 -3.139355 -6.377877 -31.339158 -26.924314 -53.388454 -14.351833 -82.772132 -12.670368 0.000000 0.000000 0.000000 20.904465 4.735466 0.702100 4.909620 11.055232 7.314803 -14.150424 -0.612997 41.592229 -5.104330 42.558724 6.056030 0.000000 0.000000 0.000000 
-13.183096 19.441860 -74.961205 0.000000 0.000000 0.000000 -54.715133 16.687172 11.539531 -96.755879 0.839392 21.772913 77.262758 4.749286 -3.073189 21.712143 5.368558 -5.602647 0.000000 0.000000 0.000000 -74.876475 19.250668 -7.607974 -104.354150 16.275113 -18.075892 101.600765 5.168455 2.522963 31.309222 5.227512 21.639508 0.000000 0.000000 0.000000 -25.209316 4.015918 0.356309 -85.228098 36.367206 19.183496 55.211588 7.713776 -3.593376 26.439481 5.312847 0.275441 0.000000 0.000000 0.000000 18.415430 1.780549 -2.624941 6.182085 0.235354 -0.599561 0.000000 0.000000 0.000000 22.241951 3.473461 0.555203 6.263753 -2.261992 -5.927481 -29.199673 -26.175341 -51.772106 -8.886270 -81.593351 -7.088235 0.000000 0.000000 0.000000 21.678018 4.867911 0.785069 5.478148 11.413448 8.116329 -11.829305 -0.151490 42.758149 -4.299277 43.990018 5.942026 0.000000 0.000000 0.000000 
-12.801273 19.497681 -76.787590 0.000000 0.000000 0.000000 -54.519103 14.618295 10.661196 -96.787530 0.413186 21.609733 76.258126 4.592255 -2.200165 20.697230 4.795325 -4.452902 0.000000 0.000000 0.000000 -73.606606 22.052461 -6.479454 -103.394167 16.968319 -18.126108 100.145169 4.868645 2.197923 30.529784 4.994796 20.820300 0.000000 0.000000 0.000000 -26.526489 4.063191 0.777396 -90.320885 35.115382 22.312688 55.176461 7.809568 -3.329638 26.484258 5.266579 0.406454 0.000000 0.000000 0.000000 19.024358 1.736012 -2.471918 6.439805 0.294200 -0.551571 0.000000 0.000000 0.000000 22.698062 3.464500 0.776794 6.709268 -1.477229 -5.466281 -26.944096 -25.322443 -49.867590 -4.434415 -80.103181 -2.480684 0.000000 0.000000 0.000000 22.194124 4.909916 0.857372 5.902186 11.652262 8.753628 -9.513049 0.551558 43.740596 -3.401261 45.644628 5.677721 0.000000 0.000000 0.000000 
-12.378584 19.592873 -78.423241 0.000000 0.000000 0.000000 -54.235431 13.217908 10.109680 -96.682844 0.119557 21.564762 75.658921 4.175098 -1.471910 19.996859 3.987467 -3.752615 0.000000 0.000000 0.000000 -72.409936 24.735271 -5.666629 -102.401345 17.702976 -18.325181 99.716459 4.386271 1.643829 30.508744 4.779438 19.476083 0.000000 0.000000 0.000000 -27.699538 3.826081 1.140301 -94.619253 34.037196 25.028327 54.731767 7.777104 -2.996803 26.303067 5.135906 0.559314 0.000000 0.000000 0.000000 19.362493 1.651800 -2.323343 6.580199 0.346917 -0.517688 0.000000 0.000000 0.000000 22.816759 3.324736 0.982201 6.930067 -0.907706 -5.237549 -24.734639 -24.295027 -47.897548 -1.294176 -78.287888 0.822181 0.000000 0.000000 0.000000 22.407756 4.858030 0.938223 6.142061 11.734799 9.300105 -7.141815 1.364248 44.541047 -2.394124 47.398391 5.258603 0.000000 0.000000 0.000000 
-11.901323 19.709499 -80.160645 0.000000 0.000000 0.000000 -53.839072 12.356499 9.932575 -96.422839 -0.118174 21.664045 75.163445 3.599843 -0.851281 19.396786 3.054364 -3.363906 0.000000 0.000000 0.000000 -71.768855 27.331538 -4.819472 -101.726099 18.422823 -18.478455 99.602982 3.787824 0.890604 30.688562 4.557916 17.709091 0.000000 0.000000 0.000000 -28.672690 3.562192 1.482110 -98.655464 33.604107 28.047253 53.942515 7.629129 -2.637246 25.927806 4.943847 0.709741 0.000000 0.000000 0.000000 19.559317 1.492804 -2.181810 6.663191 0.375167 -0.500274 0.000000 0.000000 0.000000 22.621378 3.062593 1.161388 6.956934 -0.543744 -5.248480 -22.539442 -23.053886 -45.955907 0.793495 -76.153918 3.043073 0.000000 0.000000 0.000000 22.358643 4.703886 1.011089 6.256170 11.617558 9.677591 -4.390892 2.607303 44.947071 -1.039840 49.521573 4.478451 0.000000 0.000000 0.000000 
-11.376881 19.954922 -81.934540 0.000000 0.000000 0.000000 -53.405375 12.015761 10.038264 -96.082901 -0.274492 21.845315 74.580591 3.008195 -0.297114 18.735607 2.141738 -3.098279 0.000000 0.000000 0.000000 -71.759224 29.638076 -3.904382 -101.449817 19.056948 -18.531840 99.939451 3.171770 -0.009034 31.167857 4.422572 15.704721 0.000000 0.000000 0.000000 -29.411604 3.306946 1.747793 -102.878488 34.126224 31.523037 52.616704 7.237926 -2.184680 25.242800 4.619238 0.873635 0.000000 0.000000 0.000000 19.509465 1.255977 -2.047302 6.633754 0.380740 -0.497265 0.000000 0.000000 0.000000 22.134772 2.660547 1.308837 6.806827 -0.450507 -5.458335 -20.460199 -21.775212 -44.260042 2.066516 -73.966236 4.390139 0.000000 0.000000 0.000000 22.004916 4.420691 1.102644 6.189278 11.173699 9.963622 -0.923321 3.793288 45.044514 0.755938 51.401907 3.351611 0.000000 0.000000 0.000000 
-11.156870 20.457867 -83.838646 0.000000 0.000000 0.000000 -52.899819 12.023256 10.343248 -95.655577 -0.380827 22.105395 73.995128 2.497303 0.190659 18.126537 1.356474 -2.859691 0.000000 0.000000 0.000000 -72.088029 31.677229 -2.487455 -101.358040 19.439507 -18.328208 100.888874 2.756305 -0.905800 32.139694 4.565573 13.926574 0.000000 0.000000 0.000000 -29.888764 2.673646 1.795704 -106.152553 34.402017 34.225743 50.751707 6.546773 -1.588874 24.250804 4.134845 1.075468 0.000000 0.000000 0.000000 19.190214 0.929153 -1.913889 6.481541 0.353141 -0.500385 0.000000 0.000000 0.000000 21.368293 2.116611 1.417036 6.486893 -0.670496 -5.823014 -18.418604 -20.584547 -42.831905 2.904234 -71.791954 5.205393 0.000000 0.000000 0.000000 21.272218 3.981065 1.237555 5.872986 10.238970 10.259549 2.561130 4.328513 44.887669 2.546395 52.740231 2.138625 0.000000 0.000000 0.000000 
-10.986900 21.037880 -85.714935 0.000000 0.000000 0.000000 -52.444125 12.194308 10.727444 -95.248675 -0.462421 22.381620 73.253096 2.216670 0.645671 17.465647 0.849752 -2.461855 0.000000 0.000000 0.000000 -72.672011 33.552075 -1.069757 -101.421773 19.801202 -18.094151 101.917877 2.241601 -1.867901 33.199398 4.629454 11.917027 0.000000 0.000000 0.000000 -30.377338 1.581243 1.665225 -109.094916 34.809342 35.903675 48.463874 5.565797 -1.024113 23.020540 3.524275 1.226495 0.000000 0.000000 0.000000 18.640121 0.518098 -1.813450 6.219396 0.296561 -0.527130 0.000000 0.000000 0.000000 20.334733 1.478598 1.455180 5.997651 -1.039847 -6.405932 -16.403574 -19.444082 -41.647215 3.411494 -69.560477 5.587969 0.000000 0.000000 0.000000 20.235542 3.418031 1.341628 5.392126 8.968768 10.265740 6.003655 4.696004 44.477382 4.382986 54.168318 0.795477 0.000000 0.000000 0.000000 
-10.881481 21.652748 -87.443649 0.000000 0.000000 0.000000 -52.091370 12.828770 11.134626 -94.912575 -0.382431 22.606581 72.314532 2.059283 1.006493 16.679853 0.531613 -2.098520 0.000000 0.000000 0.000000 -73.600896 35.414223 0.485382 -101.690097 20.184701 -17.787063 102.892429 1.749308 -2.865192 34.243177 4.722054 9.862212 0.000000 0.000000 0.000000 -30.805406 -0.008708 1.345416 -111.218846 34.634837 36.321614 46.010801 4.280213 -0.548766 21.710321 2.795065 1.299472 0.000000 0.000000 0.000000 17.919240 0.071230 -1.705200 5.874919 0.232188 -0.546637 0.000000 0.000000 0.000000 19.103078 0.764039 1.442996 5.381836 -1.554156 -7.083041 -14.249674 -18.348367 -40.685309 3.857518 -67.277951 5.773012 0.000000 0.000000 0.000000 19.009907 2.735609 1.399280 4.855258 7.358013 9.986793 9.410720 4.743219 43.498780 6.330183 55.466689 -0.848288 0.000000 0.000000 0.000000 
-10.984207 22.324722 -88.891029 0.000000 0.000000 0.000000 -51.891847 13.869328 11.641961 -94.671128 -0.200601 22.826871 71.281289 2.002279 1.252630 15.818790 0.382459 -1.822194 0.000000 0.000000 0.000000 -74.970957 36.999893 2.513235 -102.200551 20.372192 -17.243753 104.176716 1.496251 -3.774287 35.482519 5.058117 8.215137 0.000000 0.000000 0.000000 -31.424249 -1.451866 1.073100 -113.726078 34.565870 37.204109 43.490973 2.751302 -0.316143 20.360567 1.991200 1.226673 0.000000 0.000000 0.000000 17.136096 -0.418110 -1.615272 5.500502 0.154669 -0.568322 0.000000 0.000000 0.000000 17.748564 0.020071 1.353779 4.699429 -2.100164 -7.900755 -11.566332 -17.401966 -40.099481 4.481600 -64.957339 5.858367 0.000000 0.000000 0.000000 17.664181 2.018694 1.360656 4.286960 5.732317 9.311068 12.525831 4.967407 42.390790 8.321056 57.300431 -2.608484 0.000000 0.000000 0.000000 
-11.301561 22.998531 -90.181511 0.000000 0.000000 0.000000 -51.664268 14.992556 12.092177 -94.413596 0.040745 23.017768 70.224228 2.006550 1.425121 14.965038 0.337147 -1.602881 0.000000 0.000000 0.000000 -76.454481 38.193386 4.374423 -102.812502 20.490219 -16.712815 105.457212 1.292359 -4.573567 36.687965 5.382737 6.781351 0.000000 0.000000 0.000000 -32.073510 -2.699264 0.883053 -116.075623 33.878138 38.391325 41.012943 0.904578 -0.306887 19.042523 1.067912 1.016661 0.000000 0.000000 0.000000 16.280418 -0.976539 -1.565341 5.095264 0.051313 -0.603269 0.000000 0.000000 0.000000 16.407687 -0.697136 1.239869 4.071379 -2.545815 -8.590301 -8.870852 -16.515292 -39.394503 5.137734 -62.572654 5.968629 0.000000 0.000000 0.000000 16.267835 1.254869 1.279650 3.722506 3.981936 8.469852 15.395834 4.894355 41.026884 10.332635 59.071376 -4.503119 0.000000 0.000000 0.000000 
